<mxfile host="app.diagrams.net" modified="2023-05-29T12:47:39.601Z" agent="Mozilla/5.0 (Windows NT 10.0; Win64; x64) AppleWebKit/537.36 (KHTML, like Gecko) Chrome/113.0.0.0 Safari/537.36" version="21.3.5" etag="YsBp3fNVXdU97BZUtwC_" type="github">
  <diagram name="Page-1" id="Hrz1Fr33gbOibMHpj_V7">
    <mxGraphModel>
      <root>
        <mxCell id="0" />
        <mxCell id="1" parent="0" />
      </root>
    </mxGraphModel>
  </diagram>
</mxfile>
